<svg xmlns="http://www.w3.org/2000/svg" width="90.652" height="20.969" viewBox="0 0 90.652 20.969">
  <g id="Group_246" data-name="Group 246" transform="translate(-1010.663 -36.975)">
    <path id="Path_352" data-name="Path 352" d="M1038.927,51.04l-7.844.038a4.962,4.962,0,0,0,.564,2.313,3.705,3.705,0,0,0,1.431,1.5,3.868,3.868,0,0,0,1.963.5,5.05,5.05,0,0,0,1.313-.165,4.385,4.385,0,0,0,1.153-.518,8.616,8.616,0,0,0,1.023-.739c.313-.272.717-.631,1.214-1.082a1.346,1.346,0,0,1,.88-.256,1.474,1.474,0,0,1,1,.316,1.135,1.135,0,0,1,.387.915,2.443,2.443,0,0,1-.421,1.223,4.942,4.942,0,0,1-1.274,1.344,7.4,7.4,0,0,1-2.159,1.078,9.673,9.673,0,0,1-2.988.433,8.188,8.188,0,0,1-6.015-2.081,7.7,7.7,0,0,1-2.171-5.731,9.27,9.27,0,0,1,.512-3.17,6.955,6.955,0,0,1,1.53-2.508,6.65,6.65,0,0,1,2.491-1.613,9.161,9.161,0,0,1,3.287-.575,8.1,8.1,0,0,1,4.038.932,6.4,6.4,0,0,1,2.532,2.452,6.287,6.287,0,0,1,.85,3.063,1.9,1.9,0,0,1-.857,1.89A5.578,5.578,0,0,1,1038.927,51.04Zm-7.855-2.149,7.274-.035a4.586,4.586,0,0,0-1.123-2.946,3.388,3.388,0,0,0-2.539-.968,3.278,3.278,0,0,0-2.456,1A4.883,4.883,0,0,0,1031.072,48.891Z" fill="#fcfbff"/>
    <path id="Path_353" data-name="Path 353" d="M1046.464,44.7l3.288,8.725,3.45-9.141a5.482,5.482,0,0,1,.8-1.564,1.527,1.527,0,0,1,1.2-.466,1.837,1.837,0,0,1,1.3.492,1.508,1.508,0,0,1,.541,1.14,2.253,2.253,0,0,1-.091.59,6.3,6.3,0,0,1-.217.641c-.083.2-.179.421-.286.673l-3.8,9.186c-.106.266-.247.6-.416,1.007a4.909,4.909,0,0,1-.564,1.035,2.305,2.305,0,0,1-.779.68,2.47,2.47,0,0,1-1.12.239,2.237,2.237,0,0,1-1.362-.364,2.561,2.561,0,0,1-.752-.815c-.167-.3-.438-.881-.825-1.753l-3.863-9.048c-.086-.228-.18-.456-.27-.679a5.05,5.05,0,0,1-.239-.69,2.171,2.171,0,0,1-.1-.6,1.429,1.429,0,0,1,.242-.78,2.007,2.007,0,0,1,.692-.643,1.949,1.949,0,0,1,.951-.254,1.543,1.543,0,0,1,1.376.547A8.483,8.483,0,0,1,1046.464,44.7Z" fill="#fcfbff"/>
    <path id="Path_354" data-name="Path 354" d="M1060.8,40.742a2.157,2.157,0,0,1-1.431-.495,1.723,1.723,0,0,1-.6-1.4,1.7,1.7,0,0,1,.612-1.345,2.077,2.077,0,0,1,1.415-.527,2.153,2.153,0,0,1,1.379.477,1.68,1.68,0,0,1,.606,1.4,1.718,1.718,0,0,1-.588,1.39A2.071,2.071,0,0,1,1060.8,40.742Z" fill="#fcfbff"/>
    <path id="Path_355" data-name="Path 355" d="M1062.739,44.451l.053,11.132a2.421,2.421,0,0,1-.566,1.749,1.932,1.932,0,0,1-1.452.6,1.859,1.859,0,0,1-1.435-.6,2.51,2.51,0,0,1-.559-1.731l-.052-11.013a2.416,2.416,0,0,1,.541-1.727,1.891,1.891,0,0,1,1.431-.59,1.964,1.964,0,0,1,1.458.576A2.186,2.186,0,0,1,1062.739,44.451Z" fill="#fcfbff"/>
    <path id="Path_356" data-name="Path 356" d="M1068.768,44.418l0,.461a6.875,6.875,0,0,1,2.3-1.978,6.39,6.39,0,0,1,2.882-.647,5.919,5.919,0,0,1,2.84.654,4.717,4.717,0,0,1,2.394,3.385,15.227,15.227,0,0,1,.127,2.086l.035,7.171a2.482,2.482,0,0,1-.54,1.749,1.873,1.873,0,0,1-1.432.6,1.9,1.9,0,0,1-1.456-.6,2.473,2.473,0,0,1-.563-1.73l-.031-6.417a6.2,6.2,0,0,0-.568-2.911,2.267,2.267,0,0,0-2.2-1,3.363,3.363,0,0,0-1.953.623,3.549,3.549,0,0,0-1.284,1.7,11.668,11.668,0,0,0-.277,3.212l.022,4.827a2.441,2.441,0,0,1-.557,1.759,1.954,1.954,0,0,1-1.456.586,1.858,1.858,0,0,1-1.428-.594,2.467,2.467,0,0,1-.568-1.731l-.053-11.133a2.351,2.351,0,0,1,.492-1.643,1.771,1.771,0,0,1,1.364-.555,1.883,1.883,0,0,1,.953.245,1.7,1.7,0,0,1,.687.711A2.465,2.465,0,0,1,1068.768,44.418Z" fill="#fcfbff"/>
    <path id="Path_357" data-name="Path 357" d="M1084.834,44.417l0,.462a6.845,6.845,0,0,1,2.306-1.978,6.368,6.368,0,0,1,2.879-.647,5.926,5.926,0,0,1,2.841.654,4.7,4.7,0,0,1,2.393,3.385,14.974,14.974,0,0,1,.131,2.086l.035,7.171a2.476,2.476,0,0,1-.547,1.749,1.865,1.865,0,0,1-1.429.6,1.89,1.89,0,0,1-1.454-.594,2.476,2.476,0,0,1-.565-1.731l-.031-6.417a6.177,6.177,0,0,0-.568-2.911,2.268,2.268,0,0,0-2.2-1,3.345,3.345,0,0,0-1.951.625,3.558,3.558,0,0,0-1.287,1.695,11.518,11.518,0,0,0-.276,3.212l.022,4.828a2.42,2.42,0,0,1-.561,1.758,1.936,1.936,0,0,1-1.456.586,1.856,1.856,0,0,1-1.424-.6,2.463,2.463,0,0,1-.57-1.73l-.053-11.133a2.384,2.384,0,0,1,.491-1.644,1.772,1.772,0,0,1,1.367-.553,1.861,1.861,0,0,1,.952.244,1.7,1.7,0,0,1,.685.71A2.4,2.4,0,0,1,1084.834,44.417Z" fill="#fcfbff"/>
    <g id="Group_209" data-name="Group 209">
      <path id="Path_358" data-name="Path 358" d="M1098.51,45.488l.52,0a.411.411,0,0,1,.3.084.464.464,0,0,1,.085.322l.008.233a.841.841,0,0,0,.022.216,1.32,1.32,0,0,0,.031.137l.588-.005v-.063a.2.2,0,0,1-.1-.142.827.827,0,0,1-.018-.225v-.179a.76.76,0,0,0-.076-.39.388.388,0,0,0-.249-.195.562.562,0,0,0,.3-.256.747.747,0,0,0,.093-.356.711.711,0,0,0-.05-.265.853.853,0,0,0-.126-.208.6.6,0,0,0-.242-.185,1.226,1.226,0,0,0-.4-.055l-1.206.007.012,2.523.507,0Zm-.006-1.1.592-.005a.492.492,0,0,1,.242.052.3.3,0,0,1,.145.3.285.285,0,0,1-.146.29.49.49,0,0,1-.249.045l-.58.005Zm0,0" fill="#fcfbff"/>
      <path id="Path_359" data-name="Path 359" d="M1099.039,47.51a2.287,2.287,0,1,0-2.295-2.287,2.295,2.295,0,0,0,2.295,2.287Zm-.02-4.248a1.958,1.958,0,1,1-1.948,1.96,1.957,1.957,0,0,1,1.948-1.96Zm0,0" fill="#fcfbff"/>
    </g>
    <g id="Group_210" data-name="Group 210">
      <path id="Path_360" data-name="Path 360" d="M1010.67,45.612l-.007-.012.058,12.33h2.131a1.989,1.989,0,0,0,1.735-1.985l-.017-6.907,8.425,8.294a1.912,1.912,0,0,0,2.691.066l.083-.079a1.83,1.83,0,0,0,.587-1.336,1.851,1.851,0,0,0-.514-1.359l-8.488-8.488,7.371,0a2.005,2.005,0,0,0,1.606-1.985V42.271h-12.487A3.327,3.327,0,0,0,1010.67,45.612Z" fill="#fcfbff"/>
      <path id="Path_361" data-name="Path 361" d="M1026.385,40.768v-.647a3.323,3.323,0,0,0-3.141-3.146h-12.531v.466a3.337,3.337,0,0,0,3.19,3.327Z" fill="#fcfbff"/>
    </g>
  </g>
</svg>
